<?xml version="1.0" encoding="UTF-8" standalone="no"?>
<svg
   width="512"
   height="408"
   version="1.1"
   id="svg7"
   xml:space="preserve"
   xmlns="http://www.w3.org/2000/svg"
   xmlns:svg="http://www.w3.org/2000/svg"><defs
     id="defs6" /><path
     d="m 152.90978,38.378681 h 91.68396 v 70.103789 c 0,31.70603 26.35914,57.35764 58.93969,57.35764 h 72.0374 v 191.19215 c 0,7.01038 -5.89397,12.74614 -13.09771,12.74614 H 152.90978 c -7.20374,0 -13.09771,-5.73576 -13.09771,-12.74614 V 51.124824 c 0,-7.010378 5.89397,-12.746143 13.09771,-12.746143 z m 130.97709,15.853016 75.39369,73.369983 h -55.74713 c -10.88747,0 -19.64656,-8.52398 -19.64656,-19.11921 z M 152.90978,0.14025216 c -28.89683,0 -52.39084,22.86339384 -52.39084,50.98457184 V 357.03226 c 0,28.12118 23.49401,50.98457 52.39084,50.98457 h 209.56334 c 28.89682,0 52.39084,-22.86339 52.39084,-50.98457 V 148.71248 c 0,-13.54277 -5.48467,-26.52791 -15.30795,-36.08752 L 299.19482,15.037307 C 289.37153,5.4776996 276.1101,0.14025216 262.19379,0.14025216 Z M 234.11557,211.72623 c -6.54885,-8.44432 -18.82795,-10.19692 -27.50519,-3.82385 -8.67723,6.37308 -10.47816,18.32258 -3.92931,26.7669 l 30.45217,39.51305 -30.45217,39.51304 c -6.54885,8.44432 -4.74792,20.39383 3.92931,26.7669 8.67724,6.37307 20.95634,4.62048 27.50519,-3.82384 l 23.57588,-30.59074 23.57588,30.59074 c 6.54885,8.44432 18.82795,10.19691 27.50519,3.82384 8.67723,-6.37307 10.47816,-18.32258 3.92931,-26.7669 l -30.45218,-39.51304 30.45218,-39.51305 c 6.54885,-8.44432 4.74792,-20.39382 -3.92931,-26.7669 -8.67724,-6.37307 -20.95634,-4.62047 -27.50519,3.82385 l -23.57588,30.59074 z"
     id="path1"
     style="stroke-width:0.807546" /></svg>
